PathFileType	4	(X/Y/Z)	HSS_squat2.trc
DataRate	CameraRate	NumFrames	NumMarkers	Units	OrigDataRate	OrigDataStartFrame	OrigNumFrames
120.0	120.0	4	44	mm	120.0	122	970
Frame#	Time		R.Shoulder		Offset		L.Shoulder		R.Elbow		R.Wrist.Radial		R.Wrist		R.Hand		L.Elbow		L.Wrist.Radial		L.Wrist		L.Hand		R.Hip		V.Sacral		L.PSIS		L.Hip		R.Thigh.Upper		R.Thigh.Front		R.Thigh.Rear		X.Shell.Lower.Thigh.Right		R.Knee.Lateral		R.Shank.Upper		R.Shank.Front		R.Shank.Rear		X.Shell.Lower.Shank.Right		R.Ankle.Lateral		R.Heel		R.Toe		L.Thigh.Upper		L.Thigh.Front		L.Thigh.Rear		X.Shell.Lower.Thigh.Left		L.Knee.Lateral		L.Shank.Upper		L.Shank.Front		L.Shank.Rear		X.Shell.Lower.Shank.Left		L.Ankle.Lateral		L.Heel		L.Toe		R.Troc		L.Troc		R.PSIS		L.ASIS		R.ASIS
			X1	Y1	Z1	X2	Y2	Z2	X3	Y3	Z3	X4	Y4	Z4	X5	Y5	Z5	X6	Y6	Z6	X7	Y7	Z7	X8	Y8	Z8	X9	Y9	Z9	X10	Y10	Z10	X11	Y11	Z11	X12	Y12	Z12	X13	Y13	Z13	X14	Y14	Z14	X15	Y15	Z15	X16	Y16	Z16	X17	Y17	Z17	X18	Y18	Z18	X19	Y19	Z19	X20	Y20	Z20	X21	Y21	Z21	X22	Y22	Z22	X23	Y23	Z23	X24	Y24	Z24	X25	Y25	Z25	X26	Y26	Z26	X27	Y27	Z27	X28	Y28	Z28	X29	Y29	Z29	X30	Y30	Z30	X31	Y31	Z31	X32	Y32	Z32	X33	Y33	Z33	X34	Y34	Z34	X35	Y35	Z35	X36	Y36	Z36	X37	Y37	Z37	X38	Y38	Z38	X39	Y39	Z39	X40	Y40	Z40	X41	Y41	Z41	X42	Y42	Z42	X43	Y43	Z43	X44	Y44	Z44

122	1.00833	146.68089	1471.32397	-70.44437	-138.90936	1370.32910	37.61708	-197.77878	1486.83289	-77.04471	261.53574	1245.16748	-329.24203	59.86410	1283.38330	-502.80237	113.55733	1305.00659	-547.46429	35.16638	1316.96362	-584.58154	-311.73688	1271.02686	-346.10135	-155.85106	1321.14905	-549.50970	-107.41319	1285.74634	-510.66977	-72.56487	1312.32422	-583.33386	125.86839	1031.27100	-160.34380	-25.47688	1012.07660	-45.00406	-66.11658	1017.84753	-47.31243	-172.92288	1030.08875	-164.96431	179.40237	696.24860	-196.41583	166.62158	656.75732	-228.42709	190.80699	659.26917	-171.60042	175.89034	624.58301	-198.24127	171.66225	518.44305	-129.65709	232.90382	378.60577	-104.46868	215.08588	332.38763	-131.84274	222.81471	342.02124	-71.82360	219.50458	300.59415	-94.40369	190.38908	72.26424	-82.31143	143.14919	33.29145	-41.34031	199.97908	31.30381	-238.14566	-218.68166	695.50891	-206.94565	-200.87807	643.78625	-224.88838	-235.67110	661.67346	-175.57835	-226.56520	625.34497	-200.64471	-215.07944	510.11465	-128.59966	-274.36316	316.67715	-87.67493	-261.21243	290.81686	-115.67314	-263.73935	277.06339	-56.95936	-269.81314	246.46211	-79.36539	-240.87932	75.77918	-95.55869	-197.28827	34.84822	-41.73220	-241.16367	32.21814	-241.36156	164.36378	886.42035	-176.77551	-211.40318	898.41455	-172.08850	18.68315	1015.64941	-45.48468	-130.19934	998.53345	-233.83461	94.37434	997.49017	-225.72583
123	1.01667	146.71381	1471.35815	-70.29059	-138.84335	1370.28296	37.76369	-197.66798	1486.75732	-76.95107	261.45270	1245.33704	-329.29828	59.74228	1283.75391	-502.80304	113.45958	1305.16394	-547.51434	35.09046	1317.25854	-584.61005	-311.73404	1271.20703	-346.03494	-155.90434	1321.36951	-549.50934	-107.37848	1286.00439	-510.80298	-72.77991	1312.60291	-583.36945	125.89771	1031.28809	-160.26588	-25.44971	1012.10474	-44.94891	-66.05663	1017.84290	-47.47803	-172.87445	1030.09143	-164.80966	179.39783	696.24445	-196.31633	166.59738	656.78491	-228.37292	190.79469	659.24884	-171.53787	175.88779	624.58502	-198.20444	171.67130	518.43994	-129.58400	232.91013	378.58868	-104.45101	215.11337	332.39606	-131.80467	222.81960	342.01801	-71.77530	219.52087	300.59888	-94.35155	190.38940	72.23413	-82.31159	143.16086	33.28618	-41.34023	199.99635	31.30838	-238.17909	-218.67934	695.52039	-206.82469	-200.86971	643.78424	-224.69296	-235.62486	661.68042	-175.44965	-226.57307	625.35565	-200.46733	-215.06583	510.11276	-128.49550	-274.35748	316.66971	-87.63999	-261.22083	290.81122	-115.60161	-263.70953	277.05038	-56.90130	-269.79562	246.45169	-79.30653	-240.90009	75.78516	-95.54086	-197.30461	34.84787	-41.73152	-241.17456	32.21852	-241.31508	164.42299	886.41406	-176.70602	-211.36119	898.41718	-171.95503	18.71436	1015.68024	-45.40417	-130.18497	998.53278	-233.70753	94.40827	997.50983	-225.65941
124	1.02500	146.71849	1471.39453	-70.16034	-138.80696	1370.23474	37.93213	-197.63322	1486.75208	-76.73717	261.32812	1245.56384	-329.33575	59.65837	1284.04834	-502.80670	113.36520	1305.37805	-547.54462	34.98931	1317.52429	-584.61121	-311.75531	1271.41187	-345.92352	-156.02644	1321.61511	-549.45862	-107.46567	1286.22693	-510.88083	-72.85717	1312.85461	-583.36487	125.91581	1031.30298	-160.19295	-25.40876	1012.12036	-44.88568	-66.08672	1017.84033	-47.14403	-172.85857	1030.11047	-164.61812	179.39523	696.23511	-196.26497	166.62527	656.79944	-228.31822	190.78839	659.26263	-171.48328	175.86856	624.60388	-198.15723	171.73344	518.46649	-129.52559	232.93016	378.59747	-104.41095	215.11658	332.38974	-131.73441	222.82684	342.01852	-71.73796	219.52324	300.59937	-94.34448	190.38757	72.25488	-82.30925	143.18930	33.27797	-41.33293	199.96503	31.29519	-238.13931	-218.67101	695.54291	-206.70172	-200.90166	643.78961	-224.61815	-235.61877	661.67615	-175.32127	-226.57634	625.37097	-200.32820	-215.04811	510.12579	-128.36560	-274.33481	316.67026	-87.56665	-261.22333	290.81924	-115.52403	-263.68179	277.05435	-56.85189	-269.77975	246.45085	-79.25298	-240.90038	75.78790	-95.55516	-197.29700	34.85700	-41.72974	-241.17551	32.19016	-241.32616	164.45166	886.42151	-176.63535	-211.32495	898.41150	-171.80908	18.76312	1015.71442	-45.32761	-130.14598	998.52856	-233.52379	94.40969	997.51202	-225.59096
125	1.03333	146.71437	1471.44434	-70.00893	-138.77840	1370.20862	38.04406	-197.69370	1486.82410	-76.40413	261.20898	1245.82410	-329.37222	59.53849	1284.26013	-502.81677	113.24105	1305.59558	-547.53278	34.86518	1317.73657	-584.61432	-311.79636	1271.61719	-345.85156	-156.18256	1321.94653	-549.39880	-107.61754	1286.55688	-510.92773	-73.00940	1313.15649	-583.46387	125.93297	1031.32056	-160.06454	-25.39833	1012.15759	-44.78131	-66.06104	1017.83997	-47.00026	-172.82747	1030.10376	-164.41254	179.38776	696.23773	-196.12607	166.65491	656.79126	-228.22000	190.78673	659.25189	-171.39404	175.87630	624.60065	-198.06407	171.74435	518.46167	-129.46790	232.94505	378.57999	-104.36343	215.10631	332.38284	-131.72020	222.83025	342.01041	-71.69068	219.51529	300.57745	-94.31781	190.39575	72.24083	-82.30963	143.18990	33.28122	-41.34832	199.96246	31.31820	-238.14149	-218.64769	695.56311	-206.59811	-200.89136	643.80084	-224.47986	-235.60442	661.67126	-175.16275	-226.58716	625.39618	-200.21753	-215.04041	510.12625	-128.26009	-274.34277	316.67380	-87.47780	-261.22446	290.81094	-115.43745	-263.69717	277.04745	-56.76096	-269.77310	246.45551	-79.20689	-240.90266	75.76689	-95.53548	-197.31155	34.83189	-41.72039	-241.17645	32.22615	-241.35202	164.43074	886.40729	-176.47343	-211.32152	898.42432	-171.68279	18.74986	1015.72766	-45.23404	-130.12369	998.53754	-233.41592	94.42538	997.51117	-225.52475
